<?xml version="1.0" encoding="UTF-8" standalone="no"?>
<!DOCTYPE svg PUBLIC "-//W3C//DTD SVG 1.1//EN" "http://www.w3.org/Graphics/SVG/1.1/DTD/svg11.dtd">
<svg width="100%" height="100%" viewBox="0 0 3292 1405" version="1.1" xmlns="http://www.w3.org/2000/svg" xmlns:xlink="http://www.w3.org/1999/xlink" xml:space="preserve" xmlns:serif="http://www.serif.com/" style="fill-rule:evenodd;clip-rule:evenodd;stroke-linecap:round;stroke-linejoin:round;stroke-miterlimit:1.5;">
    <g id="Artboard1" transform="matrix(4.16667,0,0,4.16667,-2393.38,-1514.93)">
        <g>
            <clipPath id="_clip1">
                <rect x="574.411" y="363.582" width="789.759" height="336.64"/>
            </clipPath>
            <g clip-path="url(#_clip1)">
                <g transform="matrix(1,0,0,1,0.410803,0.582257)">
                    <rect x="0" y="0" width="1920" height="1080" style="fill:rgb(5,59,40);"/>
                    <g transform="matrix(0.416842,0,0,0.48,456.832,215.902)">
                        <rect x="808.683" y="611.318" width="21.348" height="19.1" style="fill:white;"/>
                    </g>
                    <g transform="matrix(0.618947,0,0,1.10802,291.506,-88.0793)">
                        <rect x="808.683" y="611.318" width="21.348" height="19.1" style="fill:white;"/>
                    </g>
                    <g transform="matrix(0.416842,0,0,0.48,478.135,215.902)">
                        <rect x="808.683" y="611.318" width="21.348" height="19.1" style="fill:white;"/>
                    </g>
                    <g transform="matrix(0.416842,0,0,0.48,435.697,215.902)">
                        <rect x="808.683" y="611.318" width="21.348" height="19.1" style="fill:white;"/>
                    </g>
                    <g transform="matrix(0.416842,0,0,0.48,456.832,234.862)">
                        <rect x="808.683" y="611.318" width="21.348" height="19.1" style="fill:white;"/>
                    </g>
                    <g transform="matrix(0.416842,0,0,0.48,478.135,234.862)">
                        <rect x="808.683" y="611.318" width="21.348" height="19.1" style="fill:white;"/>
                    </g>
                    <g transform="matrix(0.416842,0,0,0.48,435.697,234.862)">
                        <rect x="808.683" y="611.318" width="21.348" height="19.1" style="fill:white;"/>
                    </g>
                    <g transform="matrix(0.416842,0,0,0.48,456.749,253.688)">
                        <rect x="808.683" y="611.318" width="21.348" height="19.1" style="fill:white;"/>
                    </g>
                    <g transform="matrix(0.416842,0,0,0.48,478.052,253.688)">
                        <rect x="808.683" y="611.318" width="21.348" height="19.1" style="fill:white;"/>
                    </g>
                    <g transform="matrix(0.416842,0,0,0.48,435.613,253.688)">
                        <rect x="808.683" y="611.318" width="21.348" height="19.1" style="fill:white;"/>
                    </g>
                    <g transform="matrix(0.416842,0,0,0.48,456.749,272.648)">
                        <rect x="808.683" y="611.318" width="21.348" height="19.1" style="fill:white;"/>
                    </g>
                    <g transform="matrix(0.416842,0,0,0.48,478.052,272.648)">
                        <rect x="808.683" y="611.318" width="21.348" height="19.1" style="fill:white;"/>
                    </g>
                    <g transform="matrix(0.416842,0,0,0.48,383.188,272.294)">
                        <rect x="808.683" y="611.318" width="21.348" height="19.1" style="fill:white;"/>
                    </g>
                    <g transform="matrix(0.416842,0,0,0.48,404.491,272.294)">
                        <rect x="808.683" y="611.318" width="21.348" height="19.1" style="fill:white;"/>
                    </g>
                    <g transform="matrix(0.416842,0,0,0.48,383.188,291.254)">
                        <rect x="808.683" y="611.318" width="21.348" height="19.1" style="fill:white;"/>
                    </g>
                    <g transform="matrix(0.416842,0,0,0.48,404.491,291.254)">
                        <rect x="808.683" y="611.318" width="21.348" height="19.1" style="fill:white;"/>
                    </g>
                    <g transform="matrix(0.416842,0,0,0.48,435.613,272.648)">
                        <rect x="808.683" y="611.318" width="21.348" height="19.1" style="fill:white;"/>
                    </g>
                    <g transform="matrix(0.24,0,0,0.239949,574,363.022)">
                        <path d="M1085.39,444.024L1085.39,1031.1L784.395,1031.1L785.053,596.49L1085.39,444.024Z" style="fill:rgb(244,243,252);fill-opacity:0;stroke:white;stroke-width:20.84px;"/>
                    </g>
                    <g transform="matrix(0.178948,0,0,0.239949,568.026,363.022)">
                        <path d="M1085.39,737.564L1085.39,1031.1L785.053,1031.1L785.053,815.068L1085.39,737.564Z" style="fill:rgb(244,243,252);fill-opacity:0;stroke:white;stroke-width:23.62px;"/>
                    </g>
                </g>
                <g transform="matrix(1,0,0,1,-1.33628,-1.2526)">
                    <path d="M857.443,471.4C856.307,471.414 852.182,471.379 850.254,471.4C847.948,471.425 844.005,471.921 841.449,474.098C840.971,474.505 838.86,475.942 837.865,477.76C836.856,479.601 836.349,482.456 836.242,484.119C836.114,486.119 836.242,491.509 836.242,491.848" style="fill:none;stroke:white;stroke-width:5px;"/>
                </g>
                <g transform="matrix(0.00763599,-0.999971,0.999971,0.00763599,357.804,1444.27)">
                    <path d="M851.344,470.615C848.614,470.634 845.659,470.838 842.422,472.63C841.586,473.093 839.701,474.881 839.221,475.737C838.94,476.238 838.514,476.826 838.14,477.884C838.025,478.211 837.276,480.337 837.191,481.048C836.814,484.201 837.001,487.162 837.001,487.501" style="fill:none;stroke:white;stroke-width:5px;"/>
                </g>
                <g transform="matrix(0.582519,0,0,0.886957,543.157,224.631)">
                    <rect x="500.84" y="276.808" width="671.547" height="158.823" style="fill:rgb(5,59,40);fill-opacity:0;stroke:white;stroke-width:6.66px;"/>
                </g>
                <g transform="matrix(1,0,0,1,848.274,567.803)">
                    <text x="0px" y="0px" style="font-family:'Scheherazade-Regular', 'Scheherazade';font-size:150px;fill:white;">Imputfy</text>
                </g>
            </g>
        </g>
    </g>
</svg>
